<?xml version="1.0" encoding="utf-8"?>
<!-- Generator: NordNordWest -->
<!DOCTYPE svg PUBLIC "-//W3C//DTD SVG 1.1//EN" "http://www.w3.org/Graphics/SVG/1.1/DTD/svg11.dtd">
<svg version="1.1" id="Ebene_1" xmlns="http://www.w3.org/2000/svg" xmlns:xlink="http://www.w3.org/1999/xlink" x="0px" y="0px"
	 width="932.928px" height="393.25px" viewBox="0 0 932.928 393.25" enable-background="new 0 0 932.928 393.25"
	 xml:space="preserve">
<polygon fill="none" stroke="#d6e3f3" stroke-opacity="0.22" stroke-width="3" stroke-linecap="round" stroke-linejoin="round" points="476.894,179.64 476.894,173.473 449.844,168.008 449.623,157.795 456.553,157.795 
	456.553,155.996 449.585,155.996 449.393,147.104 461.871,147.104 461.871,145.304 449.355,145.304 449.163,136.412 
	459.658,136.412 459.658,134.613 449.124,134.613 448.935,125.722 458.398,125.722 458.398,123.921 448.896,123.921 
	448.703,115.028 457.449,115.028 457.449,113.229 448.665,113.229 448.475,104.337 456.553,104.337 456.553,102.538 
	446.765,102.538 446.765,40.599 444.928,40.599 444.928,-0.008 442.481,-0.008 442.481,40.599 440.647,40.599 440.647,102.538 
	430.858,102.538 430.858,104.337 438.937,104.337 438.746,113.229 429.961,113.229 429.961,115.028 438.707,115.028 
	438.517,123.921 429.013,123.921 429.013,125.722 438.477,125.722 438.285,134.613 427.751,134.613 427.751,136.412 
	438.248,136.412 438.055,145.304 425.544,145.304 425.544,147.104 438.017,147.104 437.827,155.996 430.858,155.996 
	430.858,157.795 437.786,157.795 437.567,168.008 410.518,173.473 410.518,179.64 437.103,189.508 437.104,189.508 436.796,203.86 
	436.796,203.86 417.182,207.719 419.847,218.128 436.351,224.683 432.847,387.562 454.564,387.562 451.062,224.684 467.567,218.128 
	470.231,207.719 450.613,203.86 450.307,189.508 "/>
<polygon fill="none" stroke="#d6e3f3" stroke-opacity="0.22" stroke-width="3" stroke-linecap="round" stroke-linejoin="round" points="594.321,337.082 594.321,337.082 594.321,272.11 593.017,265.468 591.714,272.11 
	591.714,240.627 590.409,233.986 589.106,240.627 589.106,213.875 587.802,207.233 586.499,213.875 584.774,213.875 
	573.862,139.302 573.835,139.273 562.923,213.847 561.198,213.847 559.896,207.205 558.591,213.847 558.591,240.599 
	557.288,233.957 555.983,240.599 555.983,272.082 554.681,265.439 553.376,272.082 553.376,337.055 549.538,337.055 
	549.538,387.534 598.159,387.562 598.159,337.082 "/>
<path fill="none" stroke="#d6e3f3" stroke-opacity="0.22" stroke-width="3" stroke-linecap="round" stroke-linejoin="round" d="M412.831,317.312v5.333h7.667v64.916h-174v-74h6.5v-5.333h-6.5v-93.916
	c0,0,4.167,3.667,9.5,2.833s11.667-7.833,13-9.5s6.667-8.667,6.667-8.667s12.833,17.333,22.333,23s15.333,6.5,21.667,5
	s9.167-4.167,9.167-4.167s11.833,21.167,21.167,26.833s15.833,7.166,22.667,4.333s10.167-6.167,10.167-6.167s11.5,10.833,18.667,14
	s12,2.833,14,2s5-3.167,5-3.167v56.667H412.831z M377.873,318.437v-4.625c0,0-1.375-2.125-5.25-5.25s-8.625-4.25-14.25-3.125
	s-10.125,6.25-10.125,6.25v5L377.873,318.437z"/>
<path fill="none" stroke="#d6e3f3" stroke-opacity="0.22" stroke-width="3" stroke-linecap="round" stroke-linejoin="round" d="M898.536,369.356l-0.482,0.025l4.268-6.82c18.619,3.244,30.857,5.441,30.857,5.441l-0.119-3.584
	c0,0-2.539-0.513-6.575-1.322l-32.171-46.465v-7.322l-1.113-1.514h-1.594v7.305l-58.638,32.089c-1.706-0.215-3.449-0.432-5.229-0.65
	l-116.673-83.705v-14.449l-6.213,2.867v10.97l-90.943,49.753l-4.18-10.751l-6.688,17.202h-93.77l-1.139-72.239l-1.334-7.945
	l-1.335,7.945h-1.011l-3.416-16.922v-15.831l-1.335-14.648l-1.335,14.648h-0.021l-0.279-8.944h-0.016
	c0.142-0.398,0.233-0.82,0.233-1.267c0-1.387-0.751-2.588-1.862-3.251l-1.936-27.781l-1.938,27.781
	c-1.109,0.663-1.861,1.864-1.861,3.251c0,0.447,0.092,0.869,0.233,1.267h-0.016l-0.278,8.944h-0.023l-1.334-14.648l-1.334,14.648
	v15.831l-3.418,16.922h-1.01l-1.334-7.945l-1.335,7.945l-1.14,72.239h-93.768l-6.688-17.202l-13.103,33.7v52.554h-45.979v-43.161
	l-9.342-10.154l-21.526-13.402h-64.172v-1.219h-3.097v-47.825l3.097-3.655h-3.097v-2.741h-3.249v-23.963h-1.27V217.8v-1.137v-8.21
	c0-6.038-3.415-11.119-8.072-12.693v-4.664l-3.046-34.828l-3.047,34.828v4.664c-4.658,1.575-8.072,6.656-8.072,12.693v8.21v1.137
	v23.558h-1.269v23.963h-3.25v2.741h-3.097l3.097,3.655v47.825h-3.097l1.436,3.448l-4.172-0.144l-16.544-8.624v-1.589h-3.048
	l-51.32-26.75l-1.739-1.47l-0.102-0.772l-7.697,1.579l-0.094,0.789l-77.689,31.401l-0.807-0.028l-0.01,0.285l-4.719,1.34v2.301
	l4.591,0.062l-0.009,0.261l71.645,2.461v63.386H86.997v3.217c-0.215,0-0.758-0.466-1.083-0.745c-0.676-0.581-1.443-1.239-2.386-1.24
	c-0.854,0-1.543,0.591-2.21,1.163c-0.427,0.366-0.958,0.821-1.262,0.821c-0.232,0-0.766-0.457-1.119-0.759
	c-0.671-0.574-1.432-1.226-2.359-1.226c0,0,0,0,0,0c-0.865,0-1.561,0.596-2.233,1.172c-0.4,0.343-0.949,0.812-1.243,0.812
	c-0.24,0-0.778-0.461-1.135-0.766c-0.667-0.571-1.423-1.219-2.343-1.219c-0.871,0-1.57,0.599-2.246,1.177
	c-0.398,0.341-0.944,0.808-1.233,0.808c-0.245,0-0.786-0.463-1.144-0.77c-0.666-0.569-1.419-1.215-2.334-1.215
	c-0.875,0-1.577,0.6-2.256,1.18c-0.397,0.339-0.942,0.804-1.228,0.804c-0.248,0-0.792-0.465-1.151-0.772
	c-0.663-0.568-1.416-1.212-2.327-1.212c-0.878,0-1.581,0.601-2.26,1.183c-0.396,0.338-0.938,0.802-1.22,0.802
	c-0.25,0-0.774-0.448-1.157-0.775c-0.663-0.567-1.414-1.209-2.323-1.209c-0.88,0-1.615,0.629-2.264,1.185
	c-0.395,0.338-0.935,0.8-1.214,0.8c-0.252,0-0.777-0.449-1.161-0.776c-0.662-0.566-1.412-1.208-2.319-1.208
	c-0.881,0-1.618,0.63-2.268,1.186c-0.394,0.337-0.934,0.798-1.213,0.798c-0.255,0-0.781-0.45-1.165-0.778
	c-0.662-0.565-1.412-1.207-2.318-1.207c-0.883,0-1.621,0.63-2.272,1.187c-0.394,0.337-0.934,0.798-1.212,0.798
	c-0.256,0-0.784-0.45-1.169-0.779c-0.661-0.565-1.411-1.205-2.315-1.205c-0.884,0-1.623,0.631-2.274,1.188
	c-0.394,0.336-0.933,0.797-1.21,0.797c-0.257,0-0.785-0.451-1.17-0.78c-0.661-0.564-1.41-1.205-2.314-1.205
	c-0.885,0-1.624,0.631-2.275,1.188c-0.393,0.336-0.932,0.796-1.208,0.796c-0.257,0-0.785-0.451-1.17-0.78
	c-0.66-0.564-1.408-1.204-2.311-1.204c-0.885,0-1.624,0.632-2.275,1.189c-0.393,0.336-0.93,0.795-1.205,0.795
	c-0.258,0-0.786-0.452-1.171-0.781c-0.66-0.564-1.407-1.203-2.309-1.204c-0.886,0-1.625,0.632-2.277,1.19
	c-0.392,0.335-0.93,0.794-1.204,0.794c-0.259,0-0.787-0.452-1.173-0.781c-0.66-0.564-1.407-1.203-2.309-1.203v1.701
	c0.274,0,0.812,0.459,1.204,0.794c0.652,0.558,1.392,1.19,2.278,1.19c0.902,0,1.649-0.639,2.309-1.203
	c0.385-0.33,0.914-0.781,1.171-0.781c0.274,0,0.812,0.459,1.204,0.795c0.652,0.558,1.391,1.19,2.277,1.19
	c0.903,0,1.65-0.64,2.31-1.204c0.385-0.329,0.913-0.78,1.17-0.78c0.275,0,0.813,0.46,1.206,0.795
	c0.652,0.557,1.39,1.189,2.275,1.189c0.904,0,1.652-0.64,2.312-1.204c0.385-0.33,0.913-0.78,1.17-0.78
	c0.277,0,0.815,0.46,1.209,0.796c0.651,0.557,1.39,1.188,2.275,1.188c0.905,0,1.654-0.64,2.314-1.205
	c0.385-0.329,0.913-0.78,1.17-0.78c0.277,0,0.817,0.46,1.211,0.797c0.651,0.557,1.389,1.188,2.273,1.188
	c0.906,0,1.655-0.641,2.317-1.206c0.384-0.329,0.911-0.779,1.167-0.779c0.278,0,0.818,0.461,1.213,0.798
	c0.65,0.556,1.388,1.186,2.27,1.186c0,0,0,0,0.001,0c0.907,0,1.657-0.641,2.318-1.207c0.384-0.328,0.909-0.777,1.163-0.777
	c0.279,0,0.819,0.462,1.214,0.799c0.649,0.555,1.385,1.185,2.266,1.185c0.908,0,1.658-0.642,2.32-1.209
	c0.382-0.327,0.906-0.775,1.158-0.775c0.281,0,0.822,0.463,1.217,0.801c0.648,0.555,1.383,1.184,2.262,1.184
	c0.911,0,1.662-0.643,2.325-1.21c0.382-0.327,0.905-0.774,1.155-0.774c0.283,0,0.826,0.464,1.222,0.803
	c0.678,0.581,1.38,1.182,2.257,1.182c0.914,0,1.667-0.644,2.333-1.212c0.36-0.307,0.903-0.771,1.151-0.771
	c0.287,0,0.831,0.466,1.229,0.806c0.677,0.58,1.377,1.179,2.25,1.179c0.917,0,1.672-0.646,2.338-1.216
	c0.357-0.306,0.898-0.768,1.14-0.768c0.292,0,0.838,0.468,1.237,0.81c0.674,0.578,1.372,1.175,2.241,1.175
	c0.923,0,1.681-0.649,2.35-1.222c0.354-0.304,0.89-0.762,1.127-0.762c0.3,0,0.829,0.453,1.254,0.816
	c0.671,0.574,1.364,1.168,2.225,1.168c0.934,0,1.697-0.654,2.37-1.231c0.35-0.3,0.878-0.753,1.102-0.753
	c0.313,0,0.848,0.459,1.278,0.829c0.662,0.568,1.346,1.156,2.191,1.156v-0.042h836.625v-4.877h-23.266L898.536,369.356z
	 M168.377,315.503l13.917,7.254l-7.237-0.249l-6.68-3.552V315.503z M168.377,320.241l4.099,2.179l-4.099-0.141V320.241z
	 M162.875,312.635h-6.388l-29.184-15.517l-9.343-7.895L162.875,312.635z M117.825,292.079l-4.891-2.601l-0.226-1.723
	L117.825,292.079z M110.703,289.908l-0.663-0.684l0.616,0.328L110.703,289.908z M110.302,286.848l0.174,1.323l-0.923-0.491
	L110.302,286.848z M108.576,286.694l0.416-0.085l-0.471,0.523l-0.44-0.234L108.576,286.694z M106.343,288.667l0.414,0.427
	l-0.536,0.597L106.343,288.667z M105.987,291.646l1.561-1.735l3.65,3.768l2.856,21.768l-11.1,1.571L105.987,291.646z
	 M29.475,317.507l70.769-28.604L30.76,317.551L29.475,317.507z M33.505,317.646l67.99-28.032l-27.56,29.421L33.505,317.646z
	 M75.441,319.086l28.585-30.516l0.047-0.019l-0.486,4.069l-23.929,26.611L75.441,319.086z M97.379,317.806v2.034l-16.242-0.558
	l22.217-24.707l-2.722,22.771L97.379,317.806z M114.926,387.479h-13.295v-29.552h13.295V387.479z M114.926,355.66h-13.295v-28.074
	l13.295,12.462V355.66z M114.926,336.94l-13.295-12.462v-0.238l13.295,0.457V336.94z M114.926,320.442l-4.697-0.161l4.697-0.665
	V320.442z M132.322,387.056l-13.145-0.441v-28.688h13.145V387.056z M119.178,354.783v-10.75l11.468,10.75H119.178z M132.322,353.247
	l-13.145-12.321v-14.693l13.145,12.517V353.247z M132.322,335.618l-11.248-10.71l11.248,0.387V335.618z M132.606,317.766
	l-0.284,0.04v3.234l-13.145-0.451v-5.869l-2.878,0.407l-2.456-18.719l18.762,19.363V317.766z M113.349,292.638l-0.233-1.78
	l8.808,4.683l21.817,18.436l-8.504,1.25L113.349,292.638z M136.574,342.798l12.586,11.985h-12.586V342.798z M149.869,387.479
	h-13.295v-30.429h13.295V387.479z M149.869,352.327l-13.295-12.66V325.44l13.295,0.457V352.327z M152.876,312.635l-6.142,0.902
	l-15.333-12.956l22.671,12.054H152.876z M189.18,387.479h-35.059v-61.437l35.059,1.205V387.479z M204.851,217.8h3.08v23.558h-3.08
	V217.8z M198.522,217.8h3.081v23.558h-3.081V217.8z M206.392,260.447c-3.927,0-7.108-3.182-7.108-7.107
	c0-3.926,3.182-7.108,7.108-7.108c3.925,0,7.107,3.182,7.107,7.108C213.5,257.265,210.317,260.447,206.392,260.447z M214.26,241.358
	h-3.079V217.8h3.079V241.358z M498.642,387.479h-8.305v-12.992c0-2.293,1.858-4.152,4.152-4.152c2.293,0,4.152,1.859,4.152,4.152
	V387.479z M901.351,358.106l-4.339-19.924l5.914,20.233C902.4,358.312,901.875,358.209,901.351,358.106z M894.313,317.379
	l31.57,45.598c-1.781-0.356-3.824-0.766-6.053-1.21l-25.518-42.791V317.379z M894.313,319.806l24.955,41.849
	c-1.803-0.36-3.719-0.741-5.707-1.136l-19.248-39.036V319.806z M894.313,322.443l18.723,37.971
	c-1.604-0.319-3.253-0.646-4.924-0.976l-13.799-35.215V322.443z M894.313,325.389l13.303,33.952
	c-1.396-0.276-2.807-0.554-4.221-0.832l-7.678-26.265l-1.404-6.449V325.389z M893.36,331.119v0.004l5.166,26.429
	c-3.111-0.607-6.166-1.201-9.035-1.752L893.36,331.119z M891.606,320.228v1.894l-19.864,30.469
	c-2.528-0.397-5.947-0.917-10.128-1.526L891.606,320.228z M861.095,350.989c-3.712-0.539-8.007-1.144-12.797-1.794l43.309-31.37
	v1.793L861.095,350.989z M891.606,322.901v2.356l-10.61,28.934c-2.682-0.498-4.929-0.9-6.511-1.161
	c-0.636-0.104-1.404-0.228-2.284-0.367L891.606,322.901z M891.526,326.712l-4.428,28.628c-2.033-0.388-3.943-0.749-5.679-1.072
	L891.526,326.712z M888.8,360.216c3.117,0.537,6.121,1.059,9.002,1.559l-9.352,0.68L888.8,360.216z M891.606,315.587v1.712
	l-43.92,31.812c-4.294-0.581-8.98-1.196-13.997-1.83L891.606,315.587z M711.067,263.359l115.793,83.074
	c-6.432-0.786-13.313-1.589-20.543-2.381l-95.25-78.246V263.359z M711.067,266.355l94.479,77.612
	c-6.519-0.711-13.314-1.413-20.312-2.085l-74.167-72.729V266.355z M711.067,269.748l73.495,72.07
	c-5.727-0.547-11.584-1.074-17.535-1.569l-55.96-67.568V269.748z M711.067,273.349l55.366,66.851
	c-5.072-0.42-10.21-0.817-15.389-1.184c-0.88-0.062-1.783-0.126-2.67-0.189l-37.308-62.007V273.349z M711.067,277.644l36.788,61.146
	c-9.85-0.696-20.092-1.416-30.347-2.13l-6.441-55.462V277.644z M614.066,312.376l90.788-49.669v3.252l-84.328,63.032
	L614.066,312.376z M620.686,329.403l84.169-62.912v3.121l-63.22,61.808c-9.498-0.65-16.76-1.146-20.715-1.415L620.686,329.403z
	 M675.379,333.738c-5.386-0.372-10.571-0.729-15.475-1.065l44.95-58.423v4.056L675.379,333.738z M704.854,279.212v2.464
	l-4.828,53.768c-8.312-0.577-16.451-1.14-24.184-1.673L704.854,279.212z M659.395,332.638c-6.255-0.43-12.042-0.827-17.192-1.179
	l62.652-61.251v3.346L659.395,332.638z M701.828,357.491l-1.262,29.988h-77.733v-49.795c12.557,0.629,45.562,2.295,76.635,3.964
	l-0.508,5.65l4.139,9.927L701.828,357.491z M704.798,341.936c0.927,0.051,1.846,0.102,2.766,0.15l-2.838,0.656L704.798,341.936z
	 M708.048,355.462l-3.008-7.221l6.366-1.47L708.048,355.462z M705.348,335.812l2.825-31.467c0,0,2.4,20.656,3.709,31.922
	C709.698,336.115,707.52,335.963,705.348,335.812z M889.218,369.835l-0.712,17.645H716.865l-1.817-31.104l-1.289-0.111l4.634-11.993
	l-0.186-1.6c12.739,0.707,24.247,1.375,32.679,1.918c37.031,2.389,89.354,7.325,122.963,13.06c4.332,0.74,8.527,1.459,12.561,2.154
	l-0.615,3.979l4.979,5.973L889.218,369.835z M893.294,369.626l-4.189-5.482l9.15-0.664l-3.811,6.088L893.294,369.626z"/>
</svg>
